HIERARCHY
ROOT Hips
{
	OFFSET 0.000000 0.000000 0.000000
	CHANNELS 6 Xposition Yposition Zposition Zrotation Yrotation Xrotation 
	JOINT LHipJoint
	{
		OFFSET 0.000000 0.000000 0.000000
		CHANNELS 3 Zrotation Yrotation Xrotation
		JOINT LeftUpLeg
		{
			OFFSET 1.363060 -1.794630 0.839290
			CHANNELS 3 Zrotation Yrotation Xrotation
			JOINT LeftLeg
			{
				OFFSET 2.448110 -6.726130 0.000000
				CHANNELS 3 Zrotation Yrotation Xrotation
				JOINT LeftFoot
				{
					OFFSET 2.562200 -7.039590 0.000000
					CHANNELS 3 Zrotation Yrotation Xrotation
					JOINT LeftToeBase
					{
						OFFSET 0.157640 -0.433110 2.322550
						CHANNELS 3 Zrotation Yrotation Xrotation
						End Site
						{
							OFFSET 0.000000 0.000000 0.000000
						}
					}
				}
			}
		}
	}
	JOINT RHipJoint
	{
		OFFSET 0.000000 0.000000 0.000000
		CHANNELS 3 Zrotation Yrotation Xrotation
		JOINT RightUpLeg
		{
			OFFSET -1.305520 -1.794630 0.839290
			CHANNELS 3 Zrotation Yrotation Xrotation
			JOINT RightLeg
			{
				OFFSET -2.542530 -6.985550 0.000000
				CHANNELS 3 Zrotation Yrotation Xrotation
				JOINT RightFoot
				{
					OFFSET -2.568260 -7.056230 0.000000
					CHANNELS 3 Zrotation Yrotation Xrotation
					JOINT RightToeBase
					{
						OFFSET -0.164730 -0.452590 2.363150
						CHANNELS 3 Zrotation Yrotation Xrotation
						End Site
						{
							OFFSET 0.000000 0.000000 0.000000
						}
					}
				}
			}
		}
	}
	JOINT LowerBack
	{
		OFFSET 0.000000 0.000000 0.000000
		CHANNELS 3 Zrotation Yrotation Xrotation
		JOINT Spine
		{
			OFFSET 0.028270 2.035590 -0.193380
			CHANNELS 3 Zrotation Yrotation Xrotation
			JOINT Spine1
			{
				OFFSET 0.056720 2.048850 -0.042750
				CHANNELS 3 Zrotation Yrotation Xrotation
				JOINT Neck
				{
					OFFSET 0.000000 0.000000 0.000000
					CHANNELS 3 Zrotation Yrotation Xrotation
					JOINT Neck1
					{
						OFFSET -0.054170 1.746240 0.172020
						CHANNELS 3 Zrotation Yrotation Xrotation
						JOINT Head
						{
							OFFSET 0.104070 1.761360 -0.123970
							CHANNELS 3 Zrotation Yrotation Xrotation
							End Site
							{
								OFFSET 0.000000 0.000000 0.000000
							}
						}
					}
				}
				JOINT LeftShoulder
				{
					OFFSET 0.000000 0.000000 0.000000
					CHANNELS 3 Zrotation Yrotation Xrotation
					JOINT LeftArm
					{
						OFFSET 3.362410 1.200890 -0.311210
						CHANNELS 3 Zrotation Yrotation Xrotation
						JOINT LeftForeArm
						{
							OFFSET 4.983000 -0.000000 -0.000000
							CHANNELS 3 Zrotation Yrotation Xrotation
							JOINT LeftHand
							{
								OFFSET 3.483560 -0.000000 -0.000000
								CHANNELS 3 Zrotation Yrotation Xrotation
								JOINT LeftFingerBase
								{
									OFFSET 0.000000 0.000000 0.000000
									CHANNELS 3 Zrotation Yrotation Xrotation
									JOINT LeftHandIndex1
									{
										OFFSET 0.715260 -0.000000 -0.000000
										CHANNELS 3 Zrotation Yrotation Xrotation
										End Site
										{
											OFFSET 0.000000 0.000000 0.000000
										}
									}
								}
								JOINT LThumb
								{
									OFFSET 0.000000 0.000000 0.000000
									CHANNELS 3 Zrotation Yrotation Xrotation
									End Site
									{
										OFFSET 0.000000 0.000000 0.000000
									}
								}
							}
						}
					}
				}
				JOINT RightShoulder
				{
					OFFSET 0.000000 0.000000 0.000000
					CHANNELS 3 Zrotation Yrotation Xrotation
					JOINT RightArm
					{
						OFFSET -3.136600 1.374050 -0.404650
						CHANNELS 3 Zrotation Yrotation Xrotation
						JOINT RightForeArm
						{
							OFFSET -5.241900 -0.000000 -0.000000
							CHANNELS 3 Zrotation Yrotation Xrotation
							JOINT RightHand
							{
								OFFSET -3.444170 -0.000000 -0.000000
								CHANNELS 3 Zrotation Yrotation Xrotation
								JOINT RightFingerBase
								{
									OFFSET 0.000000 0.000000 0.000000
									CHANNELS 3 Zrotation Yrotation Xrotation
									JOINT RightHandIndex1
									{
										OFFSET -0.622530 -0.000000 -0.000000
										CHANNELS 3 Zrotation Yrotation Xrotation
										End Site
										{
											OFFSET 0.000000 0.000000 0.000000
										}
									}
								}
								JOINT RThumb
								{
									OFFSET 0.000000 0.000000 0.000000
									CHANNELS 3 Zrotation Yrotation Xrotation
									End Site
									{
										OFFSET 0.000000 0.000000 0.000000
									}
								}
							}
						}
					}
				}
			}
		}
	}
}
MOTION
Frames: 7
Frame Time: 0.008333
30.375052 17.686395 6.430324 -104.378771 -88.623632 113.898155 -3.026970 -0.932821 0.517099 -15.004709 -2.915674 1.434268 0.499721 8.771179 23.430201 1.351947 -3.763205 5.173798 2.129400 -9.130500 -26.204400 2.029266 2.559252 -3.050369 13.949732 14.154794 -28.289563 -0.586494 -8.431789 21.556371 1.171452 -11.106865 12.793952 -1.059200 -6.543500 18.369900 -1.104250 -3.874047 2.519560 2.393013 -4.913040 -4.211550 10.883385 -2.778489 1.797681 -2.969452 -1.369351 -13.696557 6.341285 -2.457930 14.158128 2.386300 -0.943200 9.600000 8.192527 3.316835 0.167560 -99.237719 -4.414470 20.388576 1.031957 -19.650350 -1.055648 2.222052 0.825175 61.532571 9.425891 18.510965 2.551000 -7.125000 0.000000 0.000000 -17.378300 45.574700 -0.254200 -3.242154 -3.479696 -1.705536 82.711391 11.373638 10.048486 -8.915829 19.674944 -1.808985 -0.111613 0.772082 22.731280 -13.969644 -18.038212 4.439700 7.125000 0.000000 0.000000 14.216700 -48.710500 -1.325700 
30.203869 17.707099 6.397501 -104.104035 -88.600173 113.470916 -2.972739 -0.972562 0.464226 -14.726334 -2.864273 0.942322 0.755389 9.336200 25.169972 1.460276 -4.282859 6.879051 2.242400 -9.353800 -26.908300 2.056394 2.513459 -2.989569 14.264838 14.417960 -27.492512 -0.605567 -8.478841 21.723050 1.238377 -11.081234 12.089546 -1.048000 -6.510100 18.271800 -1.136957 -3.828183 2.627826 2.366430 -4.848387 -4.229506 11.073557 -2.756407 1.723342 -3.030677 -1.365735 -13.807263 6.241096 -2.418792 14.085037 2.372800 -0.937000 9.600100 8.385056 3.250694 0.171535 -100.424078 -3.595000 10.725944 -0.892664 -16.692947 -0.833813 2.343135 0.369903 69.636466 9.334255 18.311690 2.460300 -7.125000 0.000000 0.000000 -17.522400 45.382200 -0.170600 -3.278935 -3.449553 -1.671594 83.251720 11.241147 5.803359 -7.561246 17.336674 -1.303641 -0.107590 0.781923 23.880259 -13.777084 -19.696406 4.740300 7.125000 0.000000 0.000000 15.051800 -50.313700 -2.011100 
30.034605 17.727499 6.364981 -97.429720 -88.539989 106.634573 -2.886263 -1.021421 0.387499 -14.343605 -2.897943 0.335039 1.052219 9.935966 27.056100 1.568343 -4.760247 8.750583 2.208200 -9.287000 -26.697200 2.106742 2.469442 -2.920031 14.643687 14.425520 -26.711783 -0.598877 -8.482036 21.764897 1.230222 -10.791177 11.555987 -1.100200 -6.665100 18.726900 -0.989078 -3.796943 2.727005 2.321831 -4.800637 -4.223701 11.042683 -2.747718 1.721334 -3.010779 -1.379887 -14.073421 6.163419 -2.418532 13.988061 2.354600 -0.936500 9.625300 8.509486 3.194465 0.168345 -101.221135 -2.913439 0.991873 -2.205525 -13.950245 -0.680626 2.399902 0.006361 77.455303 8.702993 18.529149 2.297600 -7.125000 0.000000 0.000000 -18.200400 45.495500 -0.230300 -3.312204 -3.429389 -1.633963 83.879925 11.174403 0.176496 -6.315122 15.064275 -0.873995 -0.091641 0.797665 26.514130 -13.811443 -21.743447 5.196000 7.125000 0.000000 0.000000 15.930400 -52.320000 -2.931100 
29.864027 17.747698 6.328826 -82.787992 -88.109189 91.893107 -2.792522 -1.090881 0.295856 -13.399619 -2.919859 -0.575633 1.369488 10.519832 28.962796 1.678793 -4.954832 11.588056 2.058700 -8.987200 -25.755400 2.154628 2.402858 -2.843329 15.435920 14.166707 -25.999818 -0.575144 -8.457963 21.697382 1.262328 -10.671721 10.914246 -1.096100 -6.653000 18.691200 -0.460062 -3.831060 2.605046 2.340314 -4.850444 -4.201635 10.868897 -2.795827 1.838419 -3.036370 -1.387660 -14.153822 6.076627 -2.387441 13.770639 2.340500 -0.932000 9.527700 8.525941 3.134097 0.206033 -101.392625 -1.837088 -3.257792 -2.502060 -13.056242 -0.646271 2.421054 0.205008 79.354333 6.347060 19.102370 1.758700 -7.125000 0.000000 0.000000 -20.242400 45.714300 -0.372200 -3.307141 -3.417272 -1.598525 84.457621 10.808812 -5.219810 -5.510029 13.531003 -0.619981 -0.080975 0.812483 29.765740 -13.275013 -23.305645 5.290100 7.125000 0.000000 0.000000 17.249200 -53.724100 -3.787400 
29.695066 17.767392 6.294185 -76.009610 -87.747409 85.023531 -2.732678 -1.146487 0.215467 -12.624422 -2.961592 -1.424619 1.707316 11.088367 30.823987 1.765755 -4.859614 14.238660 1.864800 -8.578500 -24.485600 2.169074 2.347116 -2.774024 16.119202 13.984253 -25.317688 -0.563507 -8.449540 21.696968 1.275569 -10.482562 10.298986 -1.107300 -6.685800 18.787800 -0.073700 -3.817584 2.566453 2.343124 -4.833593 -4.200576 10.752681 -2.800712 1.856955 -3.056112 -1.410094 -14.284660 5.985880 -2.380522 13.589219 2.320600 -0.936900 9.473100 8.570477 3.078934 0.217507 -101.706976 -1.026848 -10.543819 -2.931407 -11.339219 -0.580993 2.451356 0.148460 84.533884 4.615720 19.481768 1.330000 -7.125000 0.000000 0.000000 -21.770100 45.842400 -0.475200 -3.311355 -3.401136 -1.565404 84.961448 10.475619 -11.969304 -4.719076 11.938002 -0.383432 -0.047157 0.827508 34.069770 -13.117897 -24.854426 5.523100 7.125000 0.000000 0.000000 18.271400 -55.170700 -4.677500 
29.527822 17.786479 6.259444 -70.954521 -87.282517 79.905265 -2.679055 -1.196091 0.130499 -11.734742 -3.009669 -2.373398 2.075794 11.651794 32.687227 1.855158 -4.477474 17.046178 1.611400 -8.005000 -22.729100 2.171048 2.298427 -2.708587 16.897938 13.700698 -24.688256 -0.548644 -8.431214 21.673143 1.275393 -10.253133 9.703580 -1.119600 -6.721400 18.892700 0.411133 -3.790590 2.468058 2.355060 -4.802838 -4.191239 10.553702 -2.797411 1.918207 -3.072341 -1.445948 -14.417946 5.899690 -2.388192 13.364708 2.299100 -0.947900 9.396200 8.560511 3.035387 0.238213 -101.721810 -0.201190 -13.038118 -3.176168 -10.628970 -0.552858 2.570157 0.428876 85.068457 2.155410 20.495388 0.727400 -7.125000 0.000000 0.000000 -24.051000 46.374400 -0.865300 -3.301869 -3.391648 -1.536390 85.436642 10.012371 -18.898966 -4.152330 10.722904 -0.215226 -0.004457 0.843169 38.835686 -13.036375 -26.318273 5.762000 7.125000 0.000000 0.000000 19.257800 -56.538100 -5.591700 
29.362597 17.804658 6.224803 -67.494026 -86.747155 76.397410 -2.627145 -1.237530 0.043501 -10.780983 -3.057117 -3.394519 2.477356 12.207393 34.546176 1.962125 -3.908378 19.878191 1.337900 -7.323700 -20.678100 2.165752 2.256504 -2.642012 17.740661 13.329760 -24.104857 -0.531316 -8.403924 21.629126 1.262484 -9.986285 9.134004 -1.131200 -6.755200 18.992200 0.948931 -3.742274 2.373761 2.376281 -4.747921 -4.191565 10.344154 -2.777486 1.938581 -3.111787 -1.497532 -14.519729 5.806212 -2.408960 13.112662 2.275700 -0.968000 9.303900 8.534668 2.994234 0.257836 -101.622189 0.628380 -15.462100 -3.290645 -10.063996 -0.534305 2.637587 0.736817 85.681163 -0.540405 21.177703 -0.000000 -7.125000 0.000000 0.000000 -26.399900 46.614000 -1.129000 -3.286063 -3.383465 -1.514757 85.849529 9.315278 -25.054344 -3.804374 9.922144 -0.102324 0.037937 0.859020 43.154335 -13.050491 -27.698378 6.024700 7.125000 0.000000 0.000000 20.179100 -57.838000 -6.515700 
